<svg width="194" height="183" viewBox="0 0 194 183" fill="none" xmlns="http://www.w3.org/2000/svg">
<path d="M142.015 26.3981H116.012V0.357422L142.015 26.3981Z" fill="#E9EBFA"/>
<path d="M116.012 160.322V182.643H12V30.1182H34.2886L116.012 160.322Z" fill="#E9EBFA"/>
<path d="M142.015 138.001V160.322H116.012H34.2891V30.1182V0.357422H116.013V26.3981H142.015V78.4795C125.604 78.4795 112.298 91.8049 112.298 108.24C112.298 124.676 125.604 138.001 142.015 138.001Z" fill="#C7CCF2"/>
<path d="M97.2215 32.5254H54.3932C52.4221 32.5254 50.8242 30.9252 50.8242 28.9512C50.8242 26.9771 52.4221 25.377 54.3932 25.377H97.2215C99.1923 25.377 100.791 26.9771 100.791 28.9512C100.791 30.9252 99.1923 32.5254 97.2215 32.5254ZM122.205 50.3965H54.3932C52.4221 50.3965 50.8242 48.7963 50.8242 46.8223C50.8242 44.8482 52.4221 43.248 54.3932 43.248H122.205C124.176 43.248 125.774 44.8482 125.774 46.8223C125.774 48.7963 124.176 50.3965 122.205 50.3965ZM122.205 68.2676H54.3932C52.4221 68.2676 50.8242 66.6674 50.8242 64.6934C50.8242 62.7193 52.4221 61.1191 54.3932 61.1191H122.205C124.176 61.1191 125.774 62.7193 125.774 64.6934C125.774 66.6674 124.176 68.2676 122.205 68.2676ZM100.791 86.1387H54.3932C52.4221 86.1387 50.8242 84.5385 50.8242 82.5645C50.8242 80.5904 52.4221 78.9902 54.3932 78.9902H100.791C102.761 78.9902 104.36 80.5904 104.36 82.5645C104.36 84.5385 102.761 86.1387 100.791 86.1387ZM93.6525 104.01H54.3932C52.4221 104.01 50.8242 102.409 50.8242 100.436C50.8242 98.4619 52.4221 96.8613 54.3932 96.8613H93.6525C95.6233 96.8613 97.2215 98.4619 97.2215 100.436C97.2215 102.409 95.6233 104.01 93.6525 104.01ZM93.6525 121.881H54.3932C52.4221 121.881 50.8242 120.28 50.8242 118.307C50.8242 116.333 52.4221 114.732 54.3932 114.732H93.6525C95.6233 114.732 97.2215 116.333 97.2215 118.307C97.2215 120.28 95.6233 121.881 93.6525 121.881ZM100.791 139.752H54.3932C52.4221 139.752 50.8242 138.151 50.8242 136.178C50.8242 134.204 52.4221 132.604 54.3932 132.604H100.791C102.761 132.604 104.36 134.204 104.36 136.178C104.36 138.151 102.761 139.752 100.791 139.752Z" fill="#5B6EDA"/>
<path fill-rule="evenodd" clip-rule="evenodd" d="M144.136 141.475C150.887 141.475 157.162 139.437 162.375 135.943L183.71 156.27L191.448 147.31L170.861 127.696C174.663 122.356 176.898 115.827 176.898 108.777C176.898 90.7186 162.23 76.0786 144.136 76.0786C126.041 76.0786 111.373 90.7186 111.373 108.777C111.373 126.836 126.041 141.475 144.136 141.475ZM172.08 108.777C172.08 124.066 159.661 136.46 144.343 136.46C129.024 136.46 116.606 124.066 116.606 108.777C116.606 93.4883 129.024 81.0943 144.343 81.0943C159.661 81.0943 172.08 93.4883 172.08 108.777Z" fill="#CCC6D9"/>
<path d="M150.547 107.95L157.588 100.926C158.248 100.231 158.609 99.3076 158.595 98.3517C158.582 97.3958 158.194 96.4833 157.515 95.807C156.836 95.1312 155.919 94.7452 154.959 94.7319C153.999 94.7185 153.071 95.0778 152.372 95.7343L145.316 102.758L138.275 95.7343C137.936 95.3777 137.529 95.0922 137.078 94.8944C136.626 94.6971 136.139 94.5918 135.646 94.5848C135.153 94.5779 134.663 94.6693 134.206 94.8537C133.749 95.0387 133.334 95.3124 132.985 95.6599C132.636 96.0069 132.361 96.4202 132.175 96.8751C131.99 97.3301 131.898 97.8176 131.905 98.309C131.912 98.7997 132.017 99.2841 132.216 99.7337C132.414 100.183 132.701 100.589 133.06 100.926L140.112 107.95L133.06 114.973C132.701 115.311 132.414 115.716 132.216 116.166C132.017 116.615 131.912 117.1 131.905 117.59C131.898 118.082 131.99 118.569 132.175 119.024C132.361 119.479 132.636 119.892 132.985 120.239C133.334 120.586 133.749 120.861 134.206 121.046C134.663 121.23 135.153 121.321 135.646 121.314C136.139 121.307 136.626 121.202 137.078 121.005C137.529 120.807 137.936 120.522 138.275 120.165L145.332 113.141L152.388 120.165C153.093 120.783 154.008 121.11 154.947 121.079C155.885 121.049 156.777 120.664 157.44 120.002C158.103 119.34 158.487 118.451 158.515 117.517C158.543 116.583 158.211 115.673 157.588 114.973L150.547 107.95Z" fill="black"/>
</svg>
